<mxfile host="app.diagrams.net" modified="2024-01-10T23:22:11.149Z" agent="Mozilla/5.0 (Macintosh; Intel Mac OS X 10_15_7) AppleWebKit/537.36 (KHTML, like Gecko) Chrome/120.0.0.0 Safari/537.36" version="22.1.18" etag="9p8BMIUn3dX5JusfGiSQ" type="github">
  <diagram name="Page-1" id="AgFJDzFmUcMOwqgw8uZG">
    <mxGraphModel>
      <root>
        <mxCell id="0" />
        <mxCell id="1" parent="0" />
      </root>
    </mxGraphModel>
  </diagram>
</mxfile>
